<svg id="Layer_1" data-name="Layer 1" xmlns="http://www.w3.org/2000/svg" viewBox="0 0 208.21 208.21"><defs><style>.cls-1{fill:#7a7a7a;}.cls-2{fill:none;stroke:#7a7a7a;stroke-miterlimit:10;stroke-width:2.55px;}</style></defs><path class="cls-1" d="M90.8,166.06a11.69,11.69,0,0,0,.11-1.19q0-27,0-53.94v-1.26H72V87.5H90.92c0-.63,0-1.1,0-1.58,0-5.8-.1-11.61.17-17.41.36-7.84,2.93-14.81,9.09-20.07a26,26,0,0,1,14.63-6,101.21,101.21,0,0,1,19.3.4c.68.06,1.35.09,2.1.15V62.75h-2.52c-3.71.06-7.42,0-11.12.22-5.57.27-8.32,2.64-8.69,8.17-.35,5.37-.07,10.78-.07,16.33h21.73c-1,7.45-1.91,14.74-2.86,22.14H113.83c0,.4-.07.67-.07.94q0,27.51,0,55c0,.16,0,.32,0,.48Z"/><circle class="cls-2" cx="104.1" cy="104.1" r="102.38"/></svg>