<svg id="Layer_1" data-name="Layer 1" xmlns="http://www.w3.org/2000/svg" viewBox="0 0 208.21 208.21"><defs><style>.cls-1{fill:#7a7a7a;}.cls-2{fill:none;stroke:#7a7a7a;stroke-miterlimit:10;stroke-width:2.55px;}</style></defs><path class="cls-1" d="M156.5,151.35H136v-1.42c0-10.05.06-20.1,0-30.14a58.59,58.59,0,0,0-.86-10.17c-1.15-6-5.48-8.15-11.22-7.65-7.34.65-9.48,5.42-10.24,10.53a50.92,50.92,0,0,0-.47,7.2c0,10.09,0,20.18,0,30.27v1.51H92.7V85.6h19.63v9c.35-.46.48-.62.59-.8,4-6.17,9.8-9.2,17-9.77a30.61,30.61,0,0,1,12.59,1.45c6.75,2.34,10.49,7.35,12.35,14a48.7,48.7,0,0,1,1.66,12.86c.08,12.74,0,25.48,0,38.22C156.53,150.8,156.51,151,156.5,151.35Z"/><path class="cls-1" d="M79.77,151.5H59.38V85.61H79.77Z"/><path class="cls-1" d="M69.51,76.57a11.93,11.93,0,1,1,12-11.95A12,12,0,0,1,69.51,76.57Z"/><circle class="cls-2" cx="104.1" cy="104.1" r="102.38"/></svg>