<svg id="Layer_1" data-name="Layer 1" xmlns="http://www.w3.org/2000/svg" viewBox="0 0 208.21 208.21"><defs><style>.cls-1{fill:#7a7a7a;}.cls-2{fill:none;stroke:#7a7a7a;stroke-miterlimit:10;stroke-width:2.55px;}</style></defs><path class="cls-1" d="M44.88,99.43c1.35-2.19,3.52-3.25,5.8-4.12q52.2-20,104.41-39.95a9.05,9.05,0,0,1,2.21-.6c3.56-.42,6.09,1.68,6,5.28a37.38,37.38,0,0,1-1,6.95q-5.7,27-11.5,53.92-2.87,13.43-5.76,26.84c0,.15-.06.3-.1.45-1.82,6.69-6.67,6.06-10.24,3.48-8.59-6.2-17.12-12.51-25.67-18.77l-1-.7c-.28.23-.55.44-.79.67L94.08,145.49a5.92,5.92,0,0,1-4.67,1.81c.16-2.39.3-4.72.47-7.05.35-5,.72-10.07,1.08-15.11a8.51,8.51,0,0,0,.13-1.73c-.44-3,1.35-4.7,3.38-6.52Q117.93,96,141.25,74.94a3,3,0,0,0,.74-.72,9.11,9.11,0,0,0,.53-1.41c-.49-.15-1-.53-1.46-.41a10.68,10.68,0,0,0-2.84,1.16Q107.58,92.69,77,111.86a1.94,1.94,0,0,1-1.8.32c-8.65-2.73-17.32-5.41-26-8.11a6.75,6.75,0,0,1-4.32-3Z"/><circle class="cls-2" cx="104.1" cy="104.1" r="102.38"/></svg>